<svg width="708" height="1148" viewBox="0 0 708 1148" fill="none" xmlns="http://www.w3.org/2000/svg">
<path d="M442.244 858.195C441.937 863.323 442.783 868.455 444.718 873.213C419.289 888.573 406.233 881.661 399.406 871.08C392.45 859.35 392.19 844.822 398.724 832.851C406.075 817.407 416.773 803.794 430.041 793C437.141 797.137 444.74 800.349 452.654 802.557C446.491 820.497 442.984 839.241 442.244 858.195Z" fill="#9D27B0" stroke="black" stroke-width="15"/>
<path d="M614.045 866.637C614.352 871.766 613.507 876.897 611.571 881.656C610.725 883.986 609.578 886.195 608.157 888.227C606.257 891.051 603.891 893.533 601.16 895.565C585.497 905.908 567.27 911.698 548.509 912.291C542.536 912.803 536.136 913.059 529.053 913.059C521.971 913.059 515.571 912.803 509.597 912.291C490.837 911.698 472.61 905.908 456.947 895.565C454.216 893.533 451.85 891.051 449.949 888.227C448.529 886.195 447.381 883.986 446.536 881.656C444.6 876.897 443.755 871.766 444.061 866.637C444.802 847.683 448.309 828.939 454.472 811C478.833 817.173 503.933 819.931 529.053 819.192C554.173 819.931 579.274 817.173 603.635 811C609.798 828.939 613.305 847.683 614.045 866.637Z" fill="#E91E63"/>
<path d="M603.635 811C595.756 813.245 587.729 814.933 579.613 816.052C584.747 832.457 587.716 849.463 588.445 866.637C588.752 871.766 587.907 876.897 585.971 881.656C585.125 883.986 583.978 886.195 582.557 888.227C580.657 891.051 578.291 893.533 575.56 895.565C559.897 905.908 541.67 911.698 522.909 912.291C520.776 912.47 518.506 912.581 516.253 912.7C520.307 912.914 524.505 913.059 529.053 913.059C536.136 913.059 542.536 912.803 548.509 912.291C567.27 911.698 585.497 905.908 601.16 895.565C603.891 893.533 606.257 891.051 608.157 888.227C609.578 886.195 610.725 883.986 611.571 881.656C613.507 876.897 614.352 871.766 614.045 866.637C613.305 847.683 609.798 828.939 603.635 811V811Z" fill="#AD1457"/>
<path d="M614.045 866.637C614.352 871.766 613.507 876.897 611.571 881.656C610.725 883.986 609.578 886.195 608.157 888.227C606.257 891.051 603.891 893.533 601.16 895.565C585.497 905.908 567.27 911.698 548.509 912.291C542.536 912.803 536.136 913.059 529.053 913.059C521.971 913.059 515.571 912.803 509.597 912.291C490.837 911.698 472.61 905.908 456.947 895.565C454.216 893.533 451.85 891.051 449.949 888.227C448.529 886.195 447.381 883.986 446.536 881.656C444.6 876.897 443.755 871.766 444.061 866.637C444.802 847.683 448.309 828.939 454.472 811C478.833 817.173 503.933 819.931 529.053 819.192C554.173 819.931 579.274 817.173 603.635 811C609.798 828.939 613.305 847.683 614.045 866.637Z" stroke="black" stroke-width="15"/>
<path d="M537.587 861.859H520.52C515.807 861.859 511.987 865.679 511.987 870.392C511.987 875.105 515.807 878.926 520.52 878.926H537.587C542.299 878.926 546.12 875.105 546.12 870.392C546.12 865.679 542.299 861.859 537.587 861.859Z" fill="black"/>
<path fill-rule="evenodd" clip-rule="evenodd" d="M534 793C575.421 793 609 751.139 609 699.5C609 647.861 575.421 606 534 606C492.579 606 459 647.861 459 699.5C459 751.139 492.579 793 534 793ZM534 761.833C561.614 761.833 584 733.926 584 699.5C584 665.074 561.614 637.167 534 637.167C506.386 637.167 484 665.074 484 699.5C484 733.926 506.386 761.833 534 761.833Z" fill="#825A2C"/>
<path d="M601.5 699.5C601.5 748.624 569.82 785.5 534 785.5V800.5C581.022 800.5 616.5 753.653 616.5 699.5H601.5ZM534 613.5C569.82 613.5 601.5 650.376 601.5 699.5H616.5C616.5 645.347 581.022 598.5 534 598.5V613.5ZM466.5 699.5C466.5 650.376 498.18 613.5 534 613.5V598.5C486.978 598.5 451.5 645.347 451.5 699.5H466.5ZM534 785.5C498.18 785.5 466.5 748.624 466.5 699.5H451.5C451.5 753.653 486.978 800.5 534 800.5V785.5ZM576.5 699.5C576.5 731.412 556.013 754.333 534 754.333V769.333C567.215 769.333 591.5 736.44 591.5 699.5H576.5ZM534 644.667C556.013 644.667 576.5 667.588 576.5 699.5H591.5C591.5 662.56 567.215 629.667 534 629.667V644.667ZM491.5 699.5C491.5 667.588 511.987 644.667 534 644.667V629.667C500.785 629.667 476.5 662.56 476.5 699.5H491.5ZM534 754.333C511.987 754.333 491.5 731.412 491.5 699.5H476.5C476.5 736.44 500.785 769.333 534 769.333V754.333Z" fill="black"/>
<rect x="513.896" y="108" width="29" height="400" fill="#825A2C" stroke="black" stroke-width="15"/>
<path d="M553.266 524.075L519.133 541.142C510.753 544.991 500.832 541.488 496.727 533.231C492.622 524.975 495.817 514.95 503.943 510.592L538.077 493.526C543.561 490.585 550.211 490.862 555.431 494.249C560.651 497.636 563.615 503.595 563.164 509.802C562.714 516.008 558.921 521.478 553.266 524.075V524.075Z" fill="#A0522D" stroke="black" stroke-width="15"/>
<path d="M553.266 600.529L519.133 617.595C510.753 621.444 500.832 617.941 496.727 609.685C492.622 601.428 495.817 591.404 503.943 587.046L538.077 569.979C543.561 567.038 550.211 567.315 555.431 570.702C560.651 574.089 563.615 580.049 563.164 586.255C562.714 592.462 558.921 597.931 553.266 600.529V600.529Z" fill="#A0522D" stroke="black" stroke-width="15"/>
<path d="M553.266 562.219L519.132 579.286C513.648 582.227 506.998 581.95 501.778 578.563C496.558 575.176 493.594 569.216 494.045 563.01C494.495 556.803 498.288 551.334 503.943 548.736L538.077 531.67C543.561 528.729 550.211 529.006 555.431 532.393C560.651 535.78 563.615 541.739 563.164 547.946C562.714 554.152 558.921 559.622 553.266 562.219V562.219Z" fill="#825A2C" stroke="black" stroke-width="15"/>
<rect x="341.118" y="107.538" width="350.301" height="50" transform="rotate(136.95 341.118 107.538)" fill="#C4C4C4" stroke="black" stroke-width="15"/>
<path fill-rule="evenodd" clip-rule="evenodd" d="M628 23C628 14.7157 621.284 8 613 8H23.0001C14.7158 8 8.00006 14.7157 8.00006 23V108L8 1125C8 1133.28 14.7157 1140 23 1140H93C101.284 1140 108 1133.28 108 1125L108 123C108 114.716 114.716 108 123 108H613C621.284 108 628 101.284 628 93V23Z" fill="#56412A"/>
<path d="M8.00006 108L15.5001 108V108H8.00006ZM108 1125L100.5 1125L108 1125ZM23.0001 15.5H613V0.5H23.0001V15.5ZM15.5001 108V23H0.500059V108H15.5001ZM15.5 1125L15.5001 108L0.500059 108L0.5 1125L15.5 1125ZM93 1132.5H23V1147.5H93V1132.5ZM100.5 123L100.5 1125L115.5 1125L115.5 123L100.5 123ZM613 100.5H123V115.5H613V100.5ZM620.5 23V93H635.5V23H620.5ZM613 115.5C625.426 115.5 635.5 105.426 635.5 93H620.5C620.5 97.1421 617.142 100.5 613 100.5V115.5ZM93 1147.5C105.426 1147.5 115.5 1137.43 115.5 1125L100.5 1125C100.5 1129.14 97.1421 1132.5 93 1132.5V1147.5ZM0.5 1125C0.499999 1137.43 10.5736 1147.5 23 1147.5V1132.5C18.8579 1132.5 15.5 1129.14 15.5 1125L0.5 1125ZM613 15.5C617.142 15.5 620.5 18.8579 620.5 23H635.5C635.5 10.5736 625.426 0.5 613 0.5V15.5ZM115.5 123C115.5 118.858 118.858 115.5 123 115.5V100.5C110.574 100.5 100.5 110.574 100.5 123L115.5 123ZM23.0001 0.5C10.5737 0.5 0.500059 10.5736 0.500059 23H15.5001C15.5001 18.8579 18.8579 15.5 23.0001 15.5V0.5Z" fill="black"/>
<path d="M662 708.4C662 743.557 662 774.619 631.195 793.051C624.095 797.188 616.496 800.399 608.581 802.608C584.221 808.782 559.12 811.539 534 810.8C508.88 811.539 483.779 808.782 459.419 802.608C451.504 800.399 443.905 797.188 436.805 793.051C406 774.619 406 743.557 406 708.4C406 661.125 446.021 621.36 500.379 609.584C511.428 607.208 522.698 606.007 534 606C540.017 605.994 546.028 606.336 552.005 607.024C614.128 614.021 662 656.688 662 708.4Z" fill="#FFE0B2"/>
<path d="M552.005 607.024C546.028 606.336 540.016 605.994 534 606C529.947 606 526.004 606.35 522.053 606.649C523.504 606.777 524.972 606.853 526.414 607.024C588.528 614.021 636.4 656.688 636.4 708.4C636.4 743.557 636.4 774.619 605.595 793.051C598.495 797.188 590.896 800.399 582.981 802.608C562.81 807.887 542.05 810.582 521.2 810.629C525.33 810.732 529.571 810.8 534 810.8C559.12 811.539 584.221 808.782 608.581 802.608C616.496 800.399 624.095 797.188 631.195 793.051C662 774.619 662 743.557 662 708.4C662 656.688 614.128 614.021 552.005 607.024Z" fill="#DFC49C"/>
<path d="M662 708.4C662 743.557 662 774.619 631.195 793.051C624.095 797.188 616.496 800.399 608.581 802.608C584.221 808.782 559.12 811.539 534 810.8C508.88 811.539 483.779 808.782 459.419 802.608C451.504 800.399 443.905 797.188 436.805 793.051C406 774.619 406 743.557 406 708.4C406 661.125 446.021 621.36 500.379 609.584C511.428 607.208 522.698 606.007 534 606C540.017 605.994 546.028 606.336 552.005 607.024C614.128 614.021 662 656.688 662 708.4Z" stroke="black" stroke-width="15"/>
<path d="M478.533 768.133C490.315 768.133 499.867 758.582 499.867 746.8C499.867 735.018 490.315 725.467 478.533 725.467C466.751 725.467 457.2 735.018 457.2 746.8C457.2 758.582 466.751 768.133 478.533 768.133Z" fill="#3F51B5"/>
<path d="M589.467 768.133C601.249 768.133 610.8 758.582 610.8 746.8C610.8 735.018 601.249 725.467 589.467 725.467C577.685 725.467 568.133 735.018 568.133 746.8C568.133 758.582 577.685 768.133 589.467 768.133Z" fill="#3F51B5"/>
<path d="M448.667 768.134C448.667 772.846 452.487 776.667 457.2 776.667H499.867C504.579 776.667 508.4 772.846 508.4 768.134C508.365 765.317 506.915 762.706 504.543 761.187C507.037 756.8 508.364 751.847 508.4 746.8C508.4 730.305 495.028 716.934 478.533 716.934C462.038 716.934 448.667 730.305 448.667 746.8C448.702 751.847 450.03 756.8 452.524 761.187C450.151 762.706 448.702 765.317 448.667 768.134ZM478.533 734C485.602 734 491.333 739.731 491.333 746.8C491.333 753.87 485.602 759.6 478.533 759.6C471.464 759.6 465.733 753.87 465.733 746.8C465.733 739.731 471.464 734 478.533 734Z" fill="black"/>
<path d="M559.6 768.134C559.6 772.846 563.421 776.667 568.133 776.667H610.8C615.513 776.667 619.333 772.846 619.333 768.134C619.298 765.317 617.849 762.706 615.476 761.187C617.97 756.8 619.298 751.847 619.333 746.8C619.333 730.305 605.962 716.934 589.467 716.934C572.972 716.934 559.6 730.305 559.6 746.8C559.635 751.847 560.963 756.8 563.457 761.187C561.085 762.706 559.635 765.317 559.6 768.134ZM589.467 734C596.536 734 602.267 739.731 602.267 746.8C602.267 753.87 596.536 759.6 589.467 759.6C582.398 759.6 576.667 753.87 576.667 746.8C576.667 739.731 582.398 734 589.467 734Z" fill="black"/>
</svg>
