<svg width="708" height="1148" viewBox="0 0 708 1148" fill="none" xmlns="http://www.w3.org/2000/svg">
<path fill-rule="evenodd" clip-rule="evenodd" d="M534 793C575.421 793 609 751.139 609 699.5C609 647.861 575.421 606 534 606C492.579 606 459 647.861 459 699.5C459 751.139 492.579 793 534 793ZM534 761.833C561.614 761.833 584 733.926 584 699.5C584 665.074 561.614 637.167 534 637.167C506.386 637.167 484 665.074 484 699.5C484 733.926 506.386 761.833 534 761.833Z" fill="#825A2C"/>
<path d="M601.5 699.5C601.5 748.624 569.82 785.5 534 785.5V800.5C581.022 800.5 616.5 753.653 616.5 699.5H601.5ZM534 613.5C569.82 613.5 601.5 650.376 601.5 699.5H616.5C616.5 645.347 581.022 598.5 534 598.5V613.5ZM466.5 699.5C466.5 650.376 498.18 613.5 534 613.5V598.5C486.978 598.5 451.5 645.347 451.5 699.5H466.5ZM534 785.5C498.18 785.5 466.5 748.624 466.5 699.5H451.5C451.5 753.653 486.978 800.5 534 800.5V785.5ZM576.5 699.5C576.5 731.412 556.013 754.333 534 754.333V769.333C567.215 769.333 591.5 736.44 591.5 699.5H576.5ZM534 644.667C556.013 644.667 576.5 667.588 576.5 699.5H591.5C591.5 662.56 567.215 629.667 534 629.667V644.667ZM491.5 699.5C491.5 667.588 511.987 644.667 534 644.667V629.667C500.785 629.667 476.5 662.56 476.5 699.5H491.5ZM534 754.333C511.987 754.333 491.5 731.412 491.5 699.5H476.5C476.5 736.44 500.785 769.333 534 769.333V754.333Z" fill="black"/>
<rect x="513.896" y="108" width="29" height="400" fill="#825A2C" stroke="black" stroke-width="15"/>
<path d="M553.266 524.075L519.133 541.142C510.753 544.991 500.832 541.488 496.727 533.231C492.622 524.975 495.817 514.95 503.943 510.592L538.077 493.526C543.561 490.585 550.211 490.862 555.431 494.249C560.651 497.636 563.615 503.595 563.164 509.802C562.714 516.008 558.921 521.478 553.266 524.075V524.075Z" fill="#A0522D" stroke="black" stroke-width="15"/>
<path d="M553.266 600.529L519.133 617.595C510.753 621.444 500.832 617.941 496.727 609.685C492.622 601.428 495.817 591.404 503.943 587.046L538.077 569.979C543.561 567.039 550.211 567.316 555.431 570.702C560.651 574.089 563.615 580.049 563.164 586.256C562.714 592.462 558.921 597.931 553.266 600.529V600.529Z" fill="#A0522D" stroke="black" stroke-width="15"/>
<path d="M553.266 562.219L519.132 579.286C513.648 582.227 506.998 581.95 501.778 578.563C496.558 575.176 493.594 569.216 494.045 563.01C494.495 556.803 498.288 551.334 503.943 548.736L538.077 531.67C543.561 528.729 550.211 529.006 555.431 532.393C560.651 535.78 563.615 541.739 563.164 547.946C562.714 554.152 558.921 559.622 553.266 562.219V562.219Z" fill="#825A2C" stroke="black" stroke-width="15"/>
<rect x="341.118" y="107.538" width="350.301" height="50" transform="rotate(136.95 341.118 107.538)" fill="#C4C4C4" stroke="black" stroke-width="15"/>
<path fill-rule="evenodd" clip-rule="evenodd" d="M628 23C628 14.7157 621.284 8 613 8H23.0001C14.7158 8 8.00006 14.7157 8.00006 23V108L8 1125C8 1133.28 14.7157 1140 23 1140H93C101.284 1140 108 1133.28 108 1125L108 123C108 114.716 114.716 108 123 108H613C621.284 108 628 101.284 628 93V23Z" fill="#56412A"/>
<path d="M8.00006 108L15.5001 108V108H8.00006ZM108 1125L100.5 1125L108 1125ZM23.0001 15.5H613V0.5H23.0001V15.5ZM15.5001 108V23H0.500059V108H15.5001ZM15.5 1125L15.5001 108L0.500059 108L0.5 1125L15.5 1125ZM93 1132.5H23V1147.5H93V1132.5ZM100.5 123L100.5 1125L115.5 1125L115.5 123L100.5 123ZM613 100.5H123V115.5H613V100.5ZM620.5 23V93H635.5V23H620.5ZM613 115.5C625.426 115.5 635.5 105.426 635.5 93H620.5C620.5 97.1421 617.142 100.5 613 100.5V115.5ZM93 1147.5C105.426 1147.5 115.5 1137.43 115.5 1125L100.5 1125C100.5 1129.14 97.1421 1132.5 93 1132.5V1147.5ZM0.5 1125C0.499999 1137.43 10.5736 1147.5 23 1147.5V1132.5C18.8579 1132.5 15.5 1129.14 15.5 1125L0.5 1125ZM613 15.5C617.142 15.5 620.5 18.8579 620.5 23H635.5C635.5 10.5736 625.426 0.5 613 0.5V15.5ZM115.5 123C115.5 118.858 118.858 115.5 123 115.5V100.5C110.574 100.5 100.5 110.574 100.5 123L115.5 123ZM23.0001 0.5C10.5737 0.5 0.500059 10.5736 0.500059 23H15.5001C15.5001 18.8579 18.8579 15.5 23.0001 15.5V0.5Z" fill="black"/>
</svg>
